# xmcd CD database file
#
# Track frame offsets:
#	150
#	23764
#	47875
#	76751
#	97581
#	123337
#	143155
#	169881
#	194444
#	212428
#
# Disc length: 3180 seconds
#
# Revision: 0
# Processed by: cddbd v1.5.2PL0 Copyright (c) Steve Scherf et al.
# Submitted via: CDex 1.50beta9
#
DISCID=790c6a0a
DTITLE=Akiko Tsuruga - Sweet and Funky
DYEAR=2007
DGENRE=Jazz
TTITLE0=Meanie Queeni
TTITLE1=DLG
TTITLE2=Sweet and Lovely
TTITLE3=Stormy Weather
TTITLE4=Saving All My Love for You
TTITLE5=Where Is the Love
TTITLE6=Polka Dots and Moonbeams
TTITLE7=Mushi-Mushi
TTITLE8=Booga Lou
TTITLE9=Broadway
EXTD=YEAR: 2007
EXTT0=
EXTT1=
EXTT2=
EXTT3=
EXTT4=
EXTT5=
EXTT6=
EXTT7=
EXTT8=
EXTT9=
PLAYORDER=
